<svg xmlns="http://www.w3.org/2000/svg" version="1.1" xmlns:xlink="http://www.w3.org/1999/xlink" xmlns:svgjs="http://svgjs.dev/svgjs" width="32" height="32"><svg width="32" height="32" viewBox="0 0 32 32" fill="none" xmlns="http://www.w3.org/2000/svg">
<g clip-path="url(#clip0_1_45)">
<path d="M16 28C16 28 3 21 3 12.75C3 10.9598 3.71116 9.2429 4.97703 7.97703C6.2429 6.71116 7.95979 6 9.75 6C12.5738 6 14.9925 7.53875 16 10V28Z" stroke="black" stroke-width="2" stroke-linecap="round" stroke-linejoin="round"></path>
<path d="M16 10C16.855 7.91125 18.7262 6.54125 21 6.115" stroke="black" stroke-width="2" stroke-linecap="round" stroke-linejoin="round"></path>
<path d="M26 7.13625C26.8177 7.6825 27.5062 8.40081 28.0172 9.24094C28.5283 10.0811 28.8496 11.0227 28.9587 12" stroke="black" stroke-width="2" stroke-linecap="round" stroke-linejoin="round"></path>
<path d="M27.9125 17C27.1875 18.4562 26.1562 19.8288 25 21.0788" stroke="black" stroke-width="2" stroke-linecap="round" stroke-linejoin="round"></path>
<path d="M21 24.6862C19.4165 25.9114 17.7453 27.0189 16 28" stroke="black" stroke-width="2" stroke-linecap="round" stroke-linejoin="round"></path>
</g>
<defs>
<clipPath id="SvgjsClipPath1001">
<rect width="32" height="32" fill="white"></rect>
</clipPath>
</defs>
</svg><style>@media (prefers-color-scheme: light) { :root { filter: none; } }
@media (prefers-color-scheme: dark) { :root { filter: none; } }
</style></svg>